<svg width="20" height="20" viewBox="0 0 20 20" fill="none" xmlns="http://www.w3.org/2000/svg">
<path fill-rule="evenodd" clip-rule="evenodd" d="M9.0369 6.74548C8.79282 6.98955 8.79282 7.38528 9.0369 7.62936L10.47 9.06242H3.64551C3.30033 9.06242 3.02051 9.34224 3.02051 9.68742C3.02051 10.0326 3.30033 10.3124 3.64551 10.3124H10.47L9.0369 11.7455C8.79282 11.9896 8.79282 12.3853 9.0369 12.6294C9.28098 12.8734 9.67671 12.8734 9.92078 12.6294L12.4208 10.1294C12.6649 9.88528 12.6649 9.48955 12.4208 9.24548L9.92078 6.74548C9.67671 6.5014 9.28098 6.5014 9.0369 6.74548Z" fill="white"/>
<path d="M10.3122 4.89779C10.3122 5.27109 10.5407 5.59763 10.8047 5.86159L13.3047 8.36159C14.0369 9.09383 14.0369 10.281 13.3047 11.0132L10.8047 13.5132C10.5407 13.7772 10.3122 14.1037 10.3122 14.477V16.3541C13.9941 16.3541 16.9788 13.3693 16.9788 9.68742C16.9788 6.00552 13.9941 3.02075 10.3122 3.02075V4.89779Z" fill="white"/>
</svg>
