<svg width="261" height="49" viewBox="0 0 261 49" fill="none" xmlns="http://www.w3.org/2000/svg">
<path d="M9.78 10.568C14.196 10.568 17.652 11.16 20.148 12.344C22.676 13.528 24.596 14.872 25.908 16.376C26.932 17.624 27.764 19.032 28.404 20.6C29.076 22.168 29.412 24.056 29.412 26.264C29.412 27.864 29.044 29.528 28.308 31.256C27.604 32.952 26.66 34.376 25.476 35.528C24.164 36.744 22.948 37.72 21.828 38.456C20.74 39.192 19.252 39.816 17.364 40.328C15.508 40.808 13.172 41.048 10.356 41.048C8.18 41.048 6.212 40.808 4.452 40.328C2.692 39.816 1.812 38.952 1.812 37.736C1.812 37.256 1.988 36.904 2.34 36.68C2.724 36.424 3.172 36.296 3.684 36.296C3.908 36.296 4.148 36.328 4.404 36.392C4.628 33.416 4.74 31.144 4.74 29.576V28.04H4.308C3.252 28.04 2.42 27.864 1.812 27.512C1.204 27.16 0.9 26.472 0.9 25.448C0.9 24.872 1.108 24.424 1.524 24.104C1.972 23.784 2.612 23.624 3.444 23.624L4.596 23.72C4.532 22.12 4.324 19.704 3.972 16.472C3.78 14.424 3.684 13.224 3.684 12.872C3.684 12.168 4.02 11.576 4.692 11.096C5.364 10.616 6.068 10.376 6.804 10.376C7.316 10.376 7.924 10.408 8.628 10.472C9.14 10.536 9.524 10.568 9.78 10.568ZM8.916 36.68C9.492 36.808 10.132 36.872 10.836 36.872C11.54 36.872 11.956 36.872 12.084 36.872C14.164 36.872 16.148 36.424 18.036 35.528C19.924 34.632 21.444 33.368 22.596 31.736C23.78 30.104 24.372 28.264 24.372 26.216C24.372 22.408 23.156 19.512 20.724 17.528C18.292 15.544 14.372 14.552 8.964 14.552C8.964 15.192 9.028 16.856 9.156 19.544L9.348 23.768C10.116 23.704 10.66 23.672 10.98 23.672C12.004 23.576 12.788 23.528 13.332 23.528C14.036 23.528 14.628 23.752 15.108 24.2C15.62 24.648 15.876 25.272 15.876 26.072C15.876 26.584 15.62 26.984 15.108 27.272C14.628 27.56 13.86 27.752 12.804 27.848C12.228 27.944 11.124 27.992 9.492 27.992V28.616C9.492 31.912 9.3 34.6 8.916 36.68ZM39.3911 2.168C39.4871 2.424 39.5831 2.632 39.6791 2.792C41.2471 5.416 43.3751 6.728 46.0631 6.728C47.9191 6.728 49.3111 6.328 50.2391 5.528C51.1671 4.696 51.8871 3.72 52.3991 2.6C52.5911 2.216 52.6871 1.848 52.6871 1.496C52.6871 1.208 52.5111 0.967999 52.1591 0.775997C51.8391 0.551998 51.5511 0.439999 51.2951 0.439999C50.9751 0.439999 50.6871 0.503999 50.4311 0.631999C50.2071 0.759999 49.9511 0.999999 49.6631 1.352C49.1191 1.96 48.5591 2.424 47.9831 2.744C47.4071 3.064 46.7351 3.224 45.9671 3.224C45.1351 3.224 44.4631 3.064 43.9511 2.744C43.4391 2.424 42.9431 2.008 42.4631 1.496C41.8231 0.919999 41.3111 0.631999 40.9271 0.631999C40.5431 0.631999 40.1751 0.743999 39.8231 0.967998C39.4711 1.16 39.2951 1.352 39.2951 1.544C39.2951 1.704 39.3271 1.912 39.3911 2.168ZM58.1591 41.24C57.2311 41.24 56.5271 40.92 56.0471 40.28C55.6311 39.736 55.2791 39.144 54.9911 38.504C54.7031 37.832 54.3991 37.032 54.0791 36.104C54.0151 35.944 53.8231 35.464 53.5031 34.664C53.2151 33.864 52.8791 33.176 52.4951 32.6C50.4791 32.888 48.8311 33.032 47.5511 33.032C46.8471 33.032 46.0631 33.016 45.1991 32.984C44.3671 32.92 43.7431 32.888 43.3271 32.888C41.7271 32.76 40.4471 32.696 39.4871 32.696C39.1031 33.208 38.7671 33.752 38.4791 34.328C38.2231 34.904 37.8871 35.768 37.4711 36.92C36.8951 38.584 36.3991 39.768 35.9831 40.472C35.6951 40.952 35.1351 41.192 34.3031 41.192C33.5991 41.192 32.9431 41.048 32.3351 40.76C31.7591 40.44 31.4711 40.008 31.4711 39.464C31.7271 38.248 32.1271 36.968 32.6711 35.624C33.2471 34.248 34.0631 32.424 35.1191 30.152L37.0391 25.448C38.0951 22.76 39.0551 20.456 39.9191 18.536C40.8151 16.616 41.9831 14.344 43.4231 11.72C43.6151 11.336 43.9351 11.016 44.3831 10.76C44.8311 10.472 45.3271 10.328 45.8711 10.328C46.4791 10.328 46.9111 10.376 47.1671 10.472C47.4551 10.536 47.6791 10.664 47.8391 10.856C47.9991 11.016 48.2391 11.368 48.5591 11.912C49.6471 13.608 50.5751 15.352 51.3431 17.144C52.1431 18.936 53.1511 21.416 54.3671 24.584L55.3751 27.128C56.2711 29.432 57.0391 31.368 57.6791 32.936C58.3511 34.472 59.0871 35.88 59.8871 37.16C60.3991 37.992 60.6551 38.568 60.6551 38.888C60.6551 39.656 60.4151 40.248 59.9351 40.664C59.4871 41.048 58.8951 41.24 58.1591 41.24ZM47.1191 29C48.8151 29 50.1431 28.888 51.1031 28.664C50.5911 27.576 49.8551 25.688 48.8951 23C47.9031 20.12 46.9111 17.832 45.9191 16.136C45.3111 17.672 44.4151 19.656 43.2311 22.088C42.4311 23.592 41.5191 25.768 40.4951 28.616C42.5431 28.872 44.7511 29 47.1191 29ZM84.9263 14.024C84.9263 13.096 85.1343 12.296 85.5503 11.624C85.9983 10.92 86.6543 10.568 87.5183 10.568C88.2543 10.568 88.9103 10.712 89.4863 11C90.0623 11.288 90.3503 11.768 90.3503 12.44C90.3503 13.752 90.2863 15.592 90.1583 17.96C90.0303 20.264 89.9663 21.976 89.9663 23.096C89.9663 24.856 90.0303 27.208 90.1583 30.152C90.2863 32.968 90.3503 35.032 90.3503 36.344C90.3503 37.4 90.3343 38.184 90.3023 38.696C90.3023 39.208 90.0143 39.72 89.4383 40.232C88.8943 40.712 88.0463 40.952 86.8943 40.952C86.2863 40.952 85.7583 40.856 85.3103 40.664C84.8943 40.44 84.6063 40.2 84.4463 39.944C82.9423 38.12 80.7503 35.016 77.8703 30.632C74.6383 25.736 71.9983 21.992 69.9503 19.4C70.2063 21.704 70.3343 24.52 70.3343 27.848C70.3343 29.32 70.3023 31.24 70.2383 33.608C70.2063 35.944 70.1423 37.48 70.0463 38.216C69.9183 39.144 69.6303 39.864 69.1823 40.376C68.7663 40.856 68.0943 41.096 67.1663 41.096C66.4623 41.096 65.9343 40.904 65.5823 40.52C65.2623 40.104 65.0703 39.4 65.0063 38.408C64.9743 37.096 65.0543 35.128 65.2463 32.504C65.2783 32.088 65.3263 31.368 65.3903 30.344C65.4543 29.32 65.4863 28.408 65.4863 27.608C65.4863 25.4 65.3743 22.872 65.1503 20.024C64.9583 16.888 64.8623 14.568 64.8623 13.064C64.8623 12.296 65.1343 11.704 65.6783 11.288C66.2543 10.872 66.9103 10.664 67.6463 10.664C68.2863 10.664 68.9583 10.824 69.6623 11.144C72.4143 14.6 76.1423 19.752 80.8463 26.6L85.3583 33.512C85.3903 33 85.4062 32.28 85.4062 31.352C85.4062 29.72 85.3743 27.96 85.3103 26.072C85.2463 24.184 85.1983 22.904 85.1663 22.232C85.0063 19.128 84.9263 16.392 84.9263 14.024ZM119.285 18.776C118.805 18.456 118.341 18.088 117.893 17.672C116.741 16.776 115.765 16.12 114.965 15.704C114.165 15.256 113.269 15.032 112.277 15.032C110.869 15.032 109.461 15.208 108.053 15.56C106.677 15.912 105.541 16.408 104.645 17.048C103.301 18.04 102.389 19.352 101.909 20.984C101.429 22.584 101.189 24.552 101.189 26.888C101.189 29.352 101.957 31.544 103.493 33.464C104.421 34.52 105.541 35.336 106.853 35.912C108.197 36.488 109.541 36.776 110.885 36.776C113.989 36.776 116.293 35.912 117.797 34.184C118.885 32.808 119.429 31.128 119.429 29.144C119.429 28.792 119.173 28.552 118.661 28.424C118.149 28.296 117.413 28.232 116.453 28.232C115.973 28.232 115.221 28.168 114.197 28.04C113.909 28.008 113.589 27.976 113.237 27.944C112.917 27.912 112.581 27.896 112.229 27.896C111.301 27.896 110.565 27.72 110.021 27.368C109.477 27.016 109.205 26.568 109.205 26.024C109.205 25.256 109.461 24.696 109.973 24.344C110.485 23.96 111.173 23.768 112.037 23.768C113.029 23.768 114.549 23.832 116.597 23.96C118.517 24.088 119.877 24.152 120.677 24.152C121.797 24.152 122.693 24.504 123.365 25.208C124.069 25.912 124.421 26.936 124.421 28.28C124.421 29.528 124.149 30.984 123.605 32.648C123.061 34.312 122.293 35.8 121.301 37.112C120.341 38.424 118.917 39.432 117.029 40.136C115.173 40.84 113.125 41.192 110.885 41.192C109.061 41.192 107.253 40.872 105.461 40.232C103.669 39.56 102.165 38.664 100.949 37.544C99.4769 36.168 98.3089 34.536 97.4449 32.648C96.6129 30.728 96.1969 28.824 96.1969 26.936C96.1969 24.024 96.7089 21.304 97.7329 18.776C98.7889 16.216 100.389 14.232 102.533 12.824C103.493 12.184 104.965 11.656 106.949 11.24C108.933 10.824 110.677 10.616 112.181 10.616C114.293 10.616 116.213 11.08 117.941 12.008C119.669 12.936 121.013 14.088 121.973 15.464C122.357 16.04 122.549 16.552 122.549 17C122.549 17.512 122.325 17.992 121.877 18.44C121.429 18.888 120.981 19.112 120.533 19.112C120.341 19.112 120.117 19.08 119.861 19.016C119.605 18.952 119.413 18.872 119.285 18.776ZM161.239 14.024C161.239 13.096 161.447 12.296 161.863 11.624C162.311 10.92 162.967 10.568 163.831 10.568C164.567 10.568 165.223 10.712 165.799 11C166.375 11.288 166.663 11.768 166.663 12.44C166.663 13.752 166.599 15.592 166.471 17.96C166.343 20.264 166.279 21.976 166.279 23.096C166.279 24.856 166.343 27.208 166.471 30.152C166.599 32.968 166.663 35.032 166.663 36.344C166.663 37.4 166.647 38.184 166.615 38.696C166.615 39.208 166.327 39.72 165.751 40.232C165.207 40.712 164.359 40.952 163.207 40.952C162.599 40.952 162.071 40.856 161.623 40.664C161.207 40.44 160.919 40.2 160.759 39.944C159.255 38.12 157.063 35.016 154.183 30.632C150.951 25.736 148.311 21.992 146.263 19.4C146.519 21.704 146.647 24.52 146.647 27.848C146.647 29.32 146.615 31.24 146.551 33.608C146.519 35.944 146.455 37.48 146.359 38.216C146.231 39.144 145.943 39.864 145.495 40.376C145.079 40.856 144.407 41.096 143.479 41.096C142.775 41.096 142.247 40.904 141.895 40.52C141.575 40.104 141.383 39.4 141.319 38.408C141.287 37.096 141.367 35.128 141.559 32.504C141.591 32.088 141.639 31.368 141.703 30.344C141.767 29.32 141.799 28.408 141.799 27.608C141.799 25.4 141.687 22.872 141.463 20.024C141.271 16.888 141.175 14.568 141.175 13.064C141.175 12.296 141.447 11.704 141.991 11.288C142.567 10.872 143.223 10.664 143.959 10.664C144.599 10.664 145.271 10.824 145.975 11.144C148.727 14.6 152.455 19.752 157.159 26.6L161.671 33.512C161.703 33 161.719 32.28 161.719 31.352C161.719 29.72 161.687 27.96 161.623 26.072C161.559 24.184 161.511 22.904 161.479 22.232C161.319 19.128 161.239 16.392 161.239 14.024ZM194.733 23.816C194.701 23.304 194.685 22.536 194.685 21.512V19.688C194.685 18.472 194.653 17.56 194.589 16.952C194.525 16.44 194.493 15.112 194.493 12.968C194.493 12.2 194.717 11.608 195.165 11.192C195.645 10.744 196.285 10.52 197.085 10.52C198.109 10.52 198.797 10.744 199.149 11.192C199.501 11.64 199.677 12.376 199.677 13.4V15.224L199.629 20.504C199.597 21.528 199.581 23.064 199.581 25.112L199.629 29.048C199.661 29.656 199.677 30.504 199.677 31.592C199.677 32.456 199.709 33.688 199.773 35.288C199.837 36.76 199.869 37.864 199.869 38.6C199.869 39.208 199.693 39.768 199.341 40.28C199.021 40.792 198.573 41.048 197.997 41.048C195.757 41.048 194.637 40.296 194.637 38.792C194.637 37.96 194.669 37.032 194.733 36.008C194.797 35.272 194.829 34.152 194.829 32.648C194.829 31.592 194.797 30.072 194.733 28.088C193.229 28.216 190.637 28.28 186.957 28.28C184.653 28.28 182.861 28.28 181.581 28.28C180.301 28.248 179.373 28.168 178.797 28.04L178.749 33.56C178.749 33.912 178.829 34.856 178.989 36.392C179.149 37.416 179.229 38.312 179.229 39.08C179.229 39.56 178.941 40.024 178.365 40.472C177.821 40.888 177.309 41.096 176.829 41.096C175.677 41.096 174.893 40.824 174.477 40.28C174.061 39.704 173.853 38.84 173.853 37.688L173.805 33.896C173.773 33.448 173.757 32.824 173.757 32.024C173.757 30.84 173.725 29.224 173.661 27.176C173.597 25.32 173.565 23.976 173.565 23.144C173.565 21.896 173.597 20.152 173.661 17.912C173.725 15.8 173.757 14.232 173.757 13.208C173.757 12.184 174.013 11.496 174.525 11.144C175.037 10.792 175.613 10.616 176.253 10.616C178.045 10.616 178.941 11.208 178.941 12.392C178.941 14.504 178.893 16.52 178.797 18.44C178.733 20.872 178.701 22.648 178.701 23.768C179.629 23.992 180.605 24.136 181.629 24.2C182.653 24.264 184.093 24.296 185.949 24.296C189.725 24.296 192.653 24.136 194.733 23.816ZM218.512 0.775997C219.248 0.775997 219.824 0.887998 220.24 1.112C220.656 1.336 221.024 1.704 221.344 2.216C221.664 2.696 222.144 3.24 222.784 3.848C223.424 4.456 224.016 4.952 224.56 5.336C225.264 5.848 225.616 6.36 225.616 6.872C225.616 7.16 225.472 7.448 225.184 7.736C224.896 8.024 224.56 8.168 224.176 8.168C223.088 8.168 222.096 7.8 221.2 7.064C220.336 6.328 219.472 5.352 218.608 4.136C217.936 5.096 217.056 6.008 215.968 6.872C214.88 7.736 213.888 8.168 212.992 8.168C212.48 8.168 212.112 8.04 211.888 7.784C211.664 7.496 211.552 7.192 211.552 6.872C211.552 6.616 211.744 6.248 212.128 5.768C212.544 5.256 212.992 4.808 213.472 4.424C214.368 3.688 215.152 2.888 215.824 2.024C216.112 1.672 216.448 1.384 216.832 1.16C217.216 0.903997 217.776 0.775997 218.512 0.775997ZM228.688 40.28C228.272 39.736 227.92 39.144 227.632 38.504C227.344 37.832 227.04 37.032 226.72 36.104C226.656 35.944 226.464 35.464 226.144 34.664C225.856 33.864 225.52 33.176 225.136 32.6C223.12 32.888 221.472 33.032 220.192 33.032C219.488 33.032 218.704 33.016 217.84 32.984C217.008 32.92 216.384 32.888 215.968 32.888C214.368 32.76 213.088 32.696 212.128 32.696C211.744 33.208 211.408 33.752 211.12 34.328C210.864 34.904 210.528 35.768 210.112 36.92C209.536 38.584 209.04 39.768 208.624 40.472C208.336 40.952 207.776 41.192 206.944 41.192C206.24 41.192 205.584 41.048 204.976 40.76C204.4 40.44 204.112 40.008 204.112 39.464C204.368 38.248 204.768 36.968 205.312 35.624C205.888 34.248 206.704 32.424 207.76 30.152L209.68 25.448C210.736 22.76 211.696 20.456 212.56 18.536C213.456 16.616 214.624 14.344 216.064 11.72C216.256 11.336 216.576 11.016 217.024 10.76C217.472 10.472 217.968 10.328 218.512 10.328C219.12 10.328 219.552 10.376 219.808 10.472C220.096 10.536 220.32 10.664 220.48 10.856C220.64 11.016 220.88 11.368 221.2 11.912C222.288 13.608 223.216 15.352 223.984 17.144C224.784 18.936 225.792 21.416 227.008 24.584L228.016 27.128C228.912 29.432 229.68 31.368 230.32 32.936C230.992 34.472 231.728 35.88 232.528 37.16C233.04 37.992 233.296 38.568 233.296 38.888C233.296 39.656 233.056 40.248 232.576 40.664C232.128 41.048 231.536 41.24 230.8 41.24C229.872 41.24 229.168 40.92 228.688 40.28ZM223.744 28.664C223.232 27.576 222.496 25.688 221.536 23C220.544 20.12 219.552 17.832 218.56 16.136C217.952 17.672 217.056 19.656 215.872 22.088C215.072 23.592 214.16 25.768 213.136 28.616C215.184 28.872 217.392 29 219.76 29C221.456 29 222.784 28.888 223.744 28.664ZM221.152 46.088C221.152 46.856 220.848 47.464 220.24 47.912C219.664 48.36 219.04 48.584 218.368 48.584C217.696 48.584 217.136 48.392 216.688 48.008C216.24 47.656 216.016 47.176 216.016 46.568C216.016 45.64 216.288 44.952 216.832 44.504C217.376 44.056 218.048 43.832 218.848 43.832C220.384 43.832 221.152 44.584 221.152 46.088ZM249.359 30.152C248.111 30.152 247.055 30.12 246.191 30.056C245.359 29.96 244.255 29.816 242.879 29.624L242.831 34.664C242.799 35.528 242.783 36.76 242.783 38.36C242.783 39.192 242.543 39.848 242.063 40.328C241.615 40.776 241.103 41 240.527 41C239.471 41 238.687 40.872 238.175 40.616C237.663 40.328 237.407 39.832 237.407 39.128C237.407 38.2 237.487 36.888 237.647 35.192C237.999 31.544 238.175 27.8 238.175 23.96C238.175 20.376 238.063 17 237.839 13.832C237.871 13.384 238.095 12.872 238.511 12.296C238.959 11.72 239.519 11.4 240.191 11.336C240.927 11.336 242.095 11.208 243.695 10.952C245.359 10.696 246.623 10.568 247.487 10.568C250.111 10.568 252.143 10.824 253.583 11.336C255.055 11.848 256.527 12.696 257.999 13.88C259.599 16.376 260.399 18.136 260.399 19.16C260.399 21.304 259.967 23.208 259.103 24.872C258.239 26.536 256.975 27.832 255.311 28.76C253.647 29.688 251.663 30.152 249.359 30.152ZM248.255 14.648C247.231 14.648 246.335 14.712 245.567 14.84C244.831 14.936 243.935 15.112 242.879 15.368C243.007 18.312 243.071 20.456 243.071 21.8C243.071 23.176 243.023 24.328 242.927 25.256C244.303 25.544 245.391 25.736 246.191 25.832C246.991 25.896 247.887 25.928 248.879 25.928C251.247 25.928 252.911 25.32 253.871 24.104C254.863 22.856 255.359 21.416 255.359 19.784C255.359 19.304 255.215 18.712 254.927 18.008C254.639 17.304 254.383 16.84 254.159 16.616C253.295 15.848 252.447 15.336 251.615 15.08C250.815 14.792 249.695 14.648 248.255 14.648Z" fill="#031230"/>
</svg>
